{
  "accessors": [
    {
      "bufferView": 2,
      "componentType": 5126,
      "count": 65532,
      "max": [
        1.599511981010437,
        -768.49603271484375,
        0.61553597450256348
      ],
      "min": [
        0.9975929856300354,
        -769.10638427734375,
        0.32184100151062012
      ],
      "type": "VEC3"
    },
    {
      "bufferView": 2,
      "byteOffset": 786384,
      "componentType": 5126,
      "count": 65532,
      "max": [
        0.89427292346954346,
        0.99469172954559326,
        0.13297666609287262
      ],
      "min": [
        -0.99408018589019775,
        -0.8100849986076355,
        -0.99999457597732544
      ],
      "type": "VEC3"
    },
    {
      "bufferView": 1,
      "componentType": 5126,
      "count": 65532,
      "max": [
        0.94218599796295166,
        0.99055999517440796
      ],
      "min": [
        0.0058450000360608101,
        0.069009996950626373
      ],
      "type": "VEC2"
    },
    {
      "bufferView": 0,
      "componentType": 5125,
      "count": 346011,
      "max": [
        65531
      ],
      "min": [
        0
      ],
      "type": "SCALAR"
    },
    {
      "bufferView": 2,
      "byteOffset": 1572768,
      "componentType": 5126,
      "count": 65532,
      "max": [
        1.6260459423065186,
        -768.5687255859375,
        0.92874401807785034
      ],
      "min": [
        1.241894006729126,
        -769.1368408203125,
        0.32833400368690491
      ],
      "type": "VEC3"
    },
    {
      "bufferView": 2,
      "byteOffset": 2359152,
      "componentType": 5126,
      "count": 65532,
      "max": [
        0.99997347593307495,
        0.95745158195495605,
        0.88463288545608521
      ],
      "min": [
        -0.30095598101615906,
        -0.9233086109161377,
        -0.97796100378036499
      ],
      "type": "VEC3"
    },
    {
      "bufferView": 1,
      "byteOffset": 524256,
      "componentType": 5126,
      "count": 65532,
      "max": [
        0.97587001323699951,
        0.92236900329589844
      ],
      "min": [
        0.10550200194120407,
        0.038600999861955643
      ],
      "type": "VEC2"
    },
    {
      "bufferView": 0,
      "byteOffset": 1384044,
      "componentType": 5125,
      "count": 340770,
      "max": [
        65531
      ],
      "min": [
        0
      ],
      "type": "SCALAR"
    },
    {
      "bufferView": 2,
      "byteOffset": 3145536,
      "componentType": 5126,
      "count": 65532,
      "max": [
        1.573341965675354,
        -768.6707763671875,
        0.95287501811981201
      ],
      "min": [
        0.99455702304840088,
        -769.15093994140625,
        0.47183099389076233
      ],
      "type": "VEC3"
    },
    {
      "bufferView": 2,
      "byteOffset": 3931920,
      "componentType": 5126,
      "count": 65532,
      "max": [
        0.87423449754714966,
        0.39003282785415649,
        0.99432224035263062
      ],
      "min": [
        -0.99857592582702637,
        -0.99956315755844116,
        -0.65067797899246216
      ],
      "type": "VEC3"
    },
    {
      "bufferView": 1,
      "byteOffset": 1048512,
      "componentType": 5126,
      "count": 65532,
      "max": [
        0.9844849705696106,
        0.98916101455688477
      ],
      "min": [
        0.020398000255227089,
        9.9999997473787516e-06
      ],
      "type": "VEC2"
    },
    {
      "bufferView": 0,
      "byteOffset": 2747124,
      "componentType": 5125,
      "count": 337140,
      "max": [
        65531
      ],
      "min": [
        0
      ],
      "type": "SCALAR"
    },
    {
      "bufferView": 2,
      "byteOffset": 4718304,
      "componentType": 5126,
      "count": 65532,
      "max": [
        1.4729410409927368,
        -768.4710693359375,
        0.9655500054359436
      ],
      "min": [
        1.0042510032653809,
        -769.1519775390625,
        0.32318800687789917
      ],
      "type": "VEC3"
    },
    {
      "bufferView": 2,
      "byteOffset": 5504688,
      "componentType": 5126,
      "count": 65532,
      "max": [
        0.99947887659072876,
        1,
        0.99999988079071045
      ],
      "min": [
        -0.99884319305419922,
        -1,
        -0.99559831619262695
      ],
      "type": "VEC3"
    },
    {
      "bufferView": 1,
      "byteOffset": 1572768,
      "componentType": 5126,
      "count": 65532,
      "max": [
        1,
        0.9909980297088623
      ],
      "min": [
        3.0000001061125658e-06,
        0.002136999974027276
      ],
      "type": "VEC2"
    },
    {
      "bufferView": 0,
      "byteOffset": 4095684,
      "componentType": 5125,
      "count": 331872,
      "max": [
        65531
      ],
      "min": [
        0
      ],
      "type": "SCALAR"
    },
    {
      "bufferView": 2,
      "byteOffset": 6291072,
      "componentType": 5126,
      "count": 65532,
      "max": [
        1.396386981010437,
        -768.4703369140625,
        0.93993300199508667
      ],
      "min": [
        0.99383801221847534,
        -768.87652587890625,
        0.36396801471710205
      ],
      "type": "VEC3"
    },
    {
      "bufferView": 2,
      "byteOffset": 7077456,
      "componentType": 5126,
      "count": 65532,
      "max": [
        0.99999761581420898,
        0.99204224348068237,
        0.96092444658279419
      ],
      "min": [
        -0.99999439716339111,
        -0.65848726034164429,
        -0.86168736219406128
      ],
      "type": "VEC3"
    },
    {
      "bufferView": 1,
      "byteOffset": 2097024,
      "componentType": 5126,
      "count": 65532,
      "max": [
        0.97046399116516113,
        0.9871479868888855
      ],
      "min": [
        0.0025220001116394997,
        0.014713999815285206
      ],
      "type": "VEC2"
    },
    {
      "bufferView": 0,
      "byteOffset": 5423172,
      "componentType": 5125,
      "count": 340320,
      "max": [
        65531
      ],
      "min": [
        0
      ],
      "type": "SCALAR"
    },
    {
      "bufferView": 2,
      "byteOffset": 7863840,
      "componentType": 5126,
      "count": 65532,
      "max": [
        1.6259239912033081,
        -768.466552734375,
        0.94938200712203979
      ],
      "min": [
        1.0465890169143677,
        -768.87408447265625,
        0.32383298873901367
      ],
      "type": "VEC3"
    },
    {
      "bufferView": 2,
      "byteOffset": 8650224,
      "componentType": 5126,
      "count": 65532,
      "max": [
        0.99980181455612183,
        1,
        0.99837327003479004
      ],
      "min": [
        -0.99935173988342285,
        -0.99728494882583618,
        -0.99999320507049561
      ],
      "type": "VEC3"
    },
    {
      "bufferView": 1,
      "byteOffset": 2621280,
      "componentType": 5126,
      "count": 65532,
      "max": [
        1,
        0.98951798677444458
      ],
      "min": [
        1.4000000192027073e-05,
        0.00085100001888349652
      ],
      "type": "VEC2"
    },
    {
      "bufferView": 0,
      "byteOffset": 6784452,
      "componentType": 5125,
      "count": 326193,
      "max": [
        65531
      ],
      "min": [
        0
      ],
      "type": "SCALAR"
    },
    {
      "bufferView": 2,
      "byteOffset": 9436608,
      "componentType": 5126,
      "count": 65532,
      "max": [
        1.6259640455245972,
        -768.466552734375,
        0.96545302867889404
      ],
      "min": [
        1.0108599662780762,
        -769.11737060546875,
        0.32185098528862
      ],
      "type": "VEC3"
    },
    {
      "bufferView": 2,
      "byteOffset": 10222992,
      "componentType": 5126,
      "count": 65532,
      "max": [
        0.99999761581420898,
        1,
        0.99967497587203979
      ],
      "min": [
        -0.99935173988342285,
        -1,
        -0.99997931718826294
      ],
      "type": "VEC3"
    },
    {
      "bufferView": 1,
      "byteOffset": 3145536,
      "componentType": 5126,
      "count": 65532,
      "max": [
        1,
        0.98731899261474609
      ],
      "min": [
        0.00032600000849924982,
        0.0023330000694841146
      ],
      "type": "VEC2"
    },
    {
      "bufferView": 0,
      "byteOffset": 8089224,
      "componentType": 5125,
      "count": 198159,
      "max": [
        65531
      ],
      "min": [
        0
      ],
      "type": "SCALAR"
    },
    {
      "bufferView": 2,
      "byteOffset": 11009376,
      "componentType": 5126,
      "count": 38895,
      "max": [
        1.616441011428833,
        -768.4881591796875,
        0.96519201993942261
      ],
      "min": [
        0.99383801221847534,
        -769.15191650390625,
        0.32205599546432495
      ],
      "type": "VEC3"
    },
    {
      "bufferView": 2,
      "byteOffset": 11476116,
      "componentType": 5126,
      "count": 38895,
      "max": [
        0.9982261061668396,
        1,
        1
      ],
      "min": [
        -0.99999439716339111,
        -1,
        -1
      ],
      "type": "VEC3"
    },
    {
      "bufferView": 1,
      "byteOffset": 3669792,
      "componentType": 5126,
      "count": 38895,
      "max": [
        1,
        0.99158799648284912
      ],
      "min": [
        0.00046400001156143844,
        0.00496299983933568
      ],
      "type": "VEC2"
    },
    {
      "bufferView": 0,
      "byteOffset": 8881860,
      "componentType": 5125,
      "count": 104010,
      "max": [
        38894
      ],
      "min": [
        0
      ],
      "type": "SCALAR"
    }
  ],
  "asset": {
    "extras": {
      "author": "Moshe Caine (https://sketchfab.com/mosheca)",
      "license": "CC-BY-4.0 (http://creativecommons.org/licenses/by/4.0/)",
      "source": "https://sketchfab.com/3d-models/apple-da0cfd4c6a4e41c5aaf06797b463235b",
      "title": "Apple"
    },
    "generator": "Sketchfab-10.16.0",
    "version": "2.0"
  },
  "bufferViews": [
    {
      "buffer": 0,
      "byteLength": 9297900,
      "byteOffset": 0,
      "name": "floatBufferViews",
      "target": 34963
    },
    {
      "buffer": 0,
      "byteLength": 3980952,
      "byteOffset": 9297900,
      "byteStride": 8,
      "name": "floatBufferViews",
      "target": 34962
    },
    {
      "buffer": 0,
      "byteLength": 11942856,
      "byteOffset": 13278852,
      "byteStride": 12,
      "name": "floatBufferViews",
      "target": 34962
    }
  ],
  "buffers": [
    {
      "byteLength": 25221708,
      "uri": "scene.bin"
    }
  ],
  "images": [
    {
      "uri": "textures/material_0_baseColor.jpeg"
    }
  ],
  "materials": [
    {
      "doubleSided": true,
      "emissiveFactor": [
        0,
        0,
        0
      ],
      "name": "material_0",
      "pbrMetallicRoughness": {
        "baseColorFactor": [
          1,
          1,
          1,
          1
        ],
        "baseColorTexture": {
          "index": 0,
          "texCoord": 0
        },
        "metallicFactor": 0,
        "roughnessFactor": 0.45772303595206393
      }
    }
  ],
  "meshes": [
    {
      "primitives": [
        {
          "attributes": {
            "NORMAL": 1,
            "POSITION": 0,
            "TEXCOORD_0": 2
          },
          "indices": 3,
          "material": 0,
          "mode": 4
        }
      ]
    },
    {
      "primitives": [
        {
          "attributes": {
            "NORMAL": 5,
            "POSITION": 4,
            "TEXCOORD_0": 6
          },
          "indices": 7,
          "material": 0,
          "mode": 4
        }
      ]
    },
    {
      "primitives": [
        {
          "attributes": {
            "NORMAL": 9,
            "POSITION": 8,
            "TEXCOORD_0": 10
          },
          "indices": 11,
          "material": 0,
          "mode": 4
        }
      ]
    },
    {
      "primitives": [
        {
          "attributes": {
            "NORMAL": 13,
            "POSITION": 12,
            "TEXCOORD_0": 14
          },
          "indices": 15,
          "material": 0,
          "mode": 4
        }
      ]
    },
    {
      "primitives": [
        {
          "attributes": {
            "NORMAL": 17,
            "POSITION": 16,
            "TEXCOORD_0": 18
          },
          "indices": 19,
          "material": 0,
          "mode": 4
        }
      ]
    },
    {
      "primitives": [
        {
          "attributes": {
            "NORMAL": 21,
            "POSITION": 20,
            "TEXCOORD_0": 22
          },
          "indices": 23,
          "material": 0,
          "mode": 4
        }
      ]
    },
    {
      "primitives": [
        {
          "attributes": {
            "NORMAL": 25,
            "POSITION": 24,
            "TEXCOORD_0": 26
          },
          "indices": 27,
          "material": 0,
          "mode": 4
        }
      ]
    },
    {
      "primitives": [
        {
          "attributes": {
            "NORMAL": 29,
            "POSITION": 28,
            "TEXCOORD_0": 30
          },
          "indices": 31,
          "material": 0,
          "mode": 4
        }
      ]
    }
  ],
  "nodes": [
    {
      "children": [
        1
      ],
      "name": "RootNode (gltf orientation matrix)",
      "rotation": [
        -0.70710678118654746,
        -0,
        -0,
        0.70710678118654757
      ]
    },
    {
      "children": [
        2
      ],
      "matrix": [
        0.019548825919628143,
        -0.96329420804977417,
        0.26773524284362793,
        0,
        -0.46300339698791504,
        0.22861957550048828,
        0.85636496543884277,
        0,
        -0.88614088296890259,
        -0.14070326089859009,
        -0.44153925776481628,
        0,
        -354.1065673828125,
        -591.6920166015625,
        658.95849609375,
        1
      ],
      "name": "RootNode (model correction matrix)"
    },
    {
      "children": [
        3,
        4,
        5,
        6,
        7,
        8,
        9,
        10
      ],
      "name": "apple2.obj.cleaner.materialmerger.gles"
    },
    {
      "mesh": 0,
      "name": ""
    },
    {
      "mesh": 1,
      "name": ""
    },
    {
      "mesh": 2,
      "name": ""
    },
    {
      "mesh": 3,
      "name": ""
    },
    {
      "mesh": 4,
      "name": ""
    },
    {
      "mesh": 5,
      "name": ""
    },
    {
      "mesh": 6,
      "name": ""
    },
    {
      "mesh": 7,
      "name": ""
    }
  ],
  "samplers": [
    {
      "magFilter": 9729,
      "minFilter": 9987,
      "wrapS": 10497,
      "wrapT": 10497
    }
  ],
  "scene": 0,
  "scenes": [
    {
      "name": "OSG_Scene",
      "nodes": [
        0
      ]
    }
  ],
  "textures": [
    {
      "sampler": 0,
      "source": 0
    }
  ]
}

